<mxfile host="app.diagrams.net" modified="2023-09-14T14:52:08.631Z" agent="Mozilla/5.0 (Windows NT 10.0; Win64; x64) AppleWebKit/537.36 (KHTML, like Gecko) Chrome/116.0.0.0 Safari/537.36 Edg/116.0.1938.81" etag="9mP3-yzkJDDdnI5z-lWC" version="21.7.5" type="device">
  <diagram name="Page-1" id="9cvmv290-VjiR-jmqgRY">
    <mxGraphModel dx="1828" dy="643" grid="1" gridSize="10" guides="1" tooltips="1" connect="1" arrows="1" fold="1" page="1" pageScale="1" pageWidth="850" pageHeight="1100" math="0" shadow="0">
      <root>
        <mxCell id="0" />
        <mxCell id="1" parent="0" />
        <mxCell id="s1eVWg7Wsp98b323GNgj-1" value="&lt;h1&gt;Entities&lt;/h1&gt;&lt;p&gt;&lt;/p&gt;&lt;ol&gt;&lt;li&gt;User&lt;/li&gt;&lt;li&gt;Category&lt;/li&gt;&lt;li&gt;Food item&lt;/li&gt;&lt;li&gt;Meal&lt;/li&gt;&lt;li&gt;Menu&lt;/li&gt;&lt;li&gt;Planner&lt;/li&gt;&lt;li&gt;Tracker&lt;/li&gt;&lt;li&gt;Logger&lt;/li&gt;&lt;li&gt;Nutritional information&lt;/li&gt;&lt;li&gt;Dashboard&lt;/li&gt;&lt;/ol&gt;&lt;p&gt;&lt;/p&gt;" style="text;html=1;strokeColor=default;fillColor=none;spacing=5;spacingTop=-20;whiteSpace=wrap;overflow=hidden;rounded=0;" vertex="1" parent="1">
          <mxGeometry x="-40" y="950" width="190" height="210" as="geometry" />
        </mxCell>
        <mxCell id="s1eVWg7Wsp98b323GNgj-4" value="" style="edgeStyle=orthogonalEdgeStyle;rounded=0;orthogonalLoop=1;jettySize=auto;html=1;" edge="1" parent="1" source="s1eVWg7Wsp98b323GNgj-2" target="s1eVWg7Wsp98b323GNgj-3">
          <mxGeometry relative="1" as="geometry" />
        </mxCell>
        <mxCell id="s1eVWg7Wsp98b323GNgj-5" value="Has" style="edgeLabel;html=1;align=center;verticalAlign=middle;resizable=0;points=[];" vertex="1" connectable="0" parent="s1eVWg7Wsp98b323GNgj-4">
          <mxGeometry x="-0.2041" y="-1" relative="1" as="geometry">
            <mxPoint as="offset" />
          </mxGeometry>
        </mxCell>
        <mxCell id="s1eVWg7Wsp98b323GNgj-2" value="Nutrikit" style="rounded=1;whiteSpace=wrap;html=1;" vertex="1" parent="1">
          <mxGeometry x="270" y="560" width="120" height="60" as="geometry" />
        </mxCell>
        <mxCell id="s1eVWg7Wsp98b323GNgj-14" style="edgeStyle=orthogonalEdgeStyle;rounded=0;orthogonalLoop=1;jettySize=auto;html=1;entryX=0.5;entryY=0;entryDx=0;entryDy=0;" edge="1" parent="1" source="s1eVWg7Wsp98b323GNgj-3" target="s1eVWg7Wsp98b323GNgj-7">
          <mxGeometry relative="1" as="geometry" />
        </mxCell>
        <mxCell id="s1eVWg7Wsp98b323GNgj-16" value="Prepares food/meal plan" style="edgeLabel;html=1;align=center;verticalAlign=middle;resizable=0;points=[];" vertex="1" connectable="0" parent="s1eVWg7Wsp98b323GNgj-14">
          <mxGeometry x="-0.0946" relative="1" as="geometry">
            <mxPoint as="offset" />
          </mxGeometry>
        </mxCell>
        <mxCell id="s1eVWg7Wsp98b323GNgj-15" style="edgeStyle=orthogonalEdgeStyle;rounded=0;orthogonalLoop=1;jettySize=auto;html=1;entryX=0.5;entryY=0;entryDx=0;entryDy=0;" edge="1" parent="1" source="s1eVWg7Wsp98b323GNgj-3" target="s1eVWg7Wsp98b323GNgj-9">
          <mxGeometry relative="1" as="geometry" />
        </mxCell>
        <mxCell id="s1eVWg7Wsp98b323GNgj-17" value="Logs food intake" style="edgeLabel;html=1;align=center;verticalAlign=middle;resizable=0;points=[];" vertex="1" connectable="0" parent="s1eVWg7Wsp98b323GNgj-15">
          <mxGeometry x="0.6185" relative="1" as="geometry">
            <mxPoint as="offset" />
          </mxGeometry>
        </mxCell>
        <mxCell id="s1eVWg7Wsp98b323GNgj-18" style="edgeStyle=orthogonalEdgeStyle;rounded=0;orthogonalLoop=1;jettySize=auto;html=1;entryX=0.5;entryY=0;entryDx=0;entryDy=0;" edge="1" parent="1" source="s1eVWg7Wsp98b323GNgj-3" target="s1eVWg7Wsp98b323GNgj-6">
          <mxGeometry relative="1" as="geometry" />
        </mxCell>
        <mxCell id="s1eVWg7Wsp98b323GNgj-19" value="Can see dashboard" style="edgeLabel;html=1;align=center;verticalAlign=middle;resizable=0;points=[];" vertex="1" connectable="0" parent="s1eVWg7Wsp98b323GNgj-18">
          <mxGeometry x="0.5266" relative="1" as="geometry">
            <mxPoint y="31" as="offset" />
          </mxGeometry>
        </mxCell>
        <mxCell id="s1eVWg7Wsp98b323GNgj-3" value="User" style="rounded=1;whiteSpace=wrap;html=1;" vertex="1" parent="1">
          <mxGeometry x="270" y="670" width="120" height="60" as="geometry" />
        </mxCell>
        <mxCell id="s1eVWg7Wsp98b323GNgj-20" style="edgeStyle=orthogonalEdgeStyle;rounded=0;orthogonalLoop=1;jettySize=auto;html=1;entryX=0;entryY=0.5;entryDx=0;entryDy=0;" edge="1" parent="1" source="s1eVWg7Wsp98b323GNgj-6" target="s1eVWg7Wsp98b323GNgj-7">
          <mxGeometry relative="1" as="geometry" />
        </mxCell>
        <mxCell id="s1eVWg7Wsp98b323GNgj-21" style="edgeStyle=orthogonalEdgeStyle;rounded=0;orthogonalLoop=1;jettySize=auto;html=1;entryX=0;entryY=0.5;entryDx=0;entryDy=0;" edge="1" parent="1" source="s1eVWg7Wsp98b323GNgj-6" target="s1eVWg7Wsp98b323GNgj-8">
          <mxGeometry relative="1" as="geometry">
            <Array as="points">
              <mxPoint x="180" y="820" />
              <mxPoint x="180" y="930" />
            </Array>
          </mxGeometry>
        </mxCell>
        <mxCell id="s1eVWg7Wsp98b323GNgj-22" value="includes user food/diet &lt;br&gt;planner and food intake/tracker" style="edgeLabel;html=1;align=center;verticalAlign=middle;resizable=0;points=[];" vertex="1" connectable="0" parent="s1eVWg7Wsp98b323GNgj-21">
          <mxGeometry x="0.2318" y="1" relative="1" as="geometry">
            <mxPoint x="-133" y="-109" as="offset" />
          </mxGeometry>
        </mxCell>
        <mxCell id="s1eVWg7Wsp98b323GNgj-6" value="Dashboard" style="rounded=1;whiteSpace=wrap;html=1;" vertex="1" parent="1">
          <mxGeometry x="-40" y="790" width="120" height="60" as="geometry" />
        </mxCell>
        <mxCell id="s1eVWg7Wsp98b323GNgj-26" style="edgeStyle=orthogonalEdgeStyle;rounded=0;orthogonalLoop=1;jettySize=auto;html=1;entryX=0.5;entryY=0;entryDx=0;entryDy=0;" edge="1" parent="1" source="s1eVWg7Wsp98b323GNgj-7" target="s1eVWg7Wsp98b323GNgj-25">
          <mxGeometry relative="1" as="geometry" />
        </mxCell>
        <mxCell id="s1eVWg7Wsp98b323GNgj-27" value="Shows/Adds meal/food items" style="edgeLabel;html=1;align=center;verticalAlign=middle;resizable=0;points=[];" vertex="1" connectable="0" parent="s1eVWg7Wsp98b323GNgj-26">
          <mxGeometry x="-0.1313" relative="1" as="geometry">
            <mxPoint as="offset" />
          </mxGeometry>
        </mxCell>
        <mxCell id="s1eVWg7Wsp98b323GNgj-7" value="Planner" style="rounded=1;whiteSpace=wrap;html=1;" vertex="1" parent="1">
          <mxGeometry x="270" y="790" width="120" height="60" as="geometry" />
        </mxCell>
        <mxCell id="s1eVWg7Wsp98b323GNgj-12" style="edgeStyle=orthogonalEdgeStyle;rounded=0;orthogonalLoop=1;jettySize=auto;html=1;entryX=1;entryY=0.5;entryDx=0;entryDy=0;" edge="1" parent="1" source="s1eVWg7Wsp98b323GNgj-8" target="s1eVWg7Wsp98b323GNgj-7">
          <mxGeometry relative="1" as="geometry" />
        </mxCell>
        <mxCell id="s1eVWg7Wsp98b323GNgj-13" value="Takes user&#39;s food/meal&lt;br&gt;plan and update goals" style="edgeLabel;html=1;align=center;verticalAlign=middle;resizable=0;points=[];" vertex="1" connectable="0" parent="s1eVWg7Wsp98b323GNgj-12">
          <mxGeometry x="0.0034" relative="1" as="geometry">
            <mxPoint as="offset" />
          </mxGeometry>
        </mxCell>
        <mxCell id="s1eVWg7Wsp98b323GNgj-8" value="Tracker" style="rounded=1;whiteSpace=wrap;html=1;" vertex="1" parent="1">
          <mxGeometry x="500" y="900" width="120" height="60" as="geometry" />
        </mxCell>
        <mxCell id="s1eVWg7Wsp98b323GNgj-10" value="" style="edgeStyle=orthogonalEdgeStyle;rounded=0;orthogonalLoop=1;jettySize=auto;html=1;" edge="1" parent="1" source="s1eVWg7Wsp98b323GNgj-9" target="s1eVWg7Wsp98b323GNgj-8">
          <mxGeometry relative="1" as="geometry" />
        </mxCell>
        <mxCell id="s1eVWg7Wsp98b323GNgj-11" value="Part of" style="edgeLabel;html=1;align=center;verticalAlign=middle;resizable=0;points=[];" vertex="1" connectable="0" parent="s1eVWg7Wsp98b323GNgj-10">
          <mxGeometry x="-0.1597" relative="1" as="geometry">
            <mxPoint as="offset" />
          </mxGeometry>
        </mxCell>
        <mxCell id="s1eVWg7Wsp98b323GNgj-9" value="Logger" style="rounded=1;whiteSpace=wrap;html=1;" vertex="1" parent="1">
          <mxGeometry x="500" y="790" width="120" height="60" as="geometry" />
        </mxCell>
        <mxCell id="s1eVWg7Wsp98b323GNgj-42" style="edgeStyle=orthogonalEdgeStyle;rounded=0;orthogonalLoop=1;jettySize=auto;html=1;entryX=1;entryY=0.5;entryDx=0;entryDy=0;" edge="1" parent="1" source="s1eVWg7Wsp98b323GNgj-23" target="s1eVWg7Wsp98b323GNgj-41">
          <mxGeometry relative="1" as="geometry" />
        </mxCell>
        <mxCell id="s1eVWg7Wsp98b323GNgj-43" value="Of type" style="edgeLabel;html=1;align=center;verticalAlign=middle;resizable=0;points=[];" vertex="1" connectable="0" parent="s1eVWg7Wsp98b323GNgj-42">
          <mxGeometry x="0.0111" y="1" relative="1" as="geometry">
            <mxPoint as="offset" />
          </mxGeometry>
        </mxCell>
        <mxCell id="s1eVWg7Wsp98b323GNgj-23" value="Food item" style="rounded=1;whiteSpace=wrap;html=1;" vertex="1" parent="1">
          <mxGeometry x="380" y="1210" width="120" height="60" as="geometry" />
        </mxCell>
        <mxCell id="s1eVWg7Wsp98b323GNgj-47" style="edgeStyle=orthogonalEdgeStyle;rounded=0;orthogonalLoop=1;jettySize=auto;html=1;entryX=0.5;entryY=0;entryDx=0;entryDy=0;" edge="1" parent="1" source="s1eVWg7Wsp98b323GNgj-24" target="s1eVWg7Wsp98b323GNgj-23">
          <mxGeometry relative="1" as="geometry" />
        </mxCell>
        <mxCell id="s1eVWg7Wsp98b323GNgj-48" value="*Might contain one&lt;br&gt;or more" style="edgeLabel;html=1;align=center;verticalAlign=middle;resizable=0;points=[];" vertex="1" connectable="0" parent="s1eVWg7Wsp98b323GNgj-47">
          <mxGeometry x="-0.0127" relative="1" as="geometry">
            <mxPoint as="offset" />
          </mxGeometry>
        </mxCell>
        <mxCell id="s1eVWg7Wsp98b323GNgj-24" value="Meal" style="rounded=1;whiteSpace=wrap;html=1;" vertex="1" parent="1">
          <mxGeometry x="380" y="1070" width="120" height="60" as="geometry" />
        </mxCell>
        <mxCell id="s1eVWg7Wsp98b323GNgj-30" style="edgeStyle=orthogonalEdgeStyle;rounded=0;orthogonalLoop=1;jettySize=auto;html=1;entryX=0.5;entryY=0;entryDx=0;entryDy=0;" edge="1" parent="1" source="s1eVWg7Wsp98b323GNgj-25" target="s1eVWg7Wsp98b323GNgj-24">
          <mxGeometry relative="1" as="geometry">
            <Array as="points">
              <mxPoint x="440" y="1000" />
            </Array>
          </mxGeometry>
        </mxCell>
        <mxCell id="s1eVWg7Wsp98b323GNgj-32" value="Adds meal/food item" style="edgeLabel;html=1;align=center;verticalAlign=middle;resizable=0;points=[];" vertex="1" connectable="0" parent="s1eVWg7Wsp98b323GNgj-30">
          <mxGeometry x="0.3815" y="1" relative="1" as="geometry">
            <mxPoint x="-1" y="7" as="offset" />
          </mxGeometry>
        </mxCell>
        <mxCell id="s1eVWg7Wsp98b323GNgj-25" value="Menu" style="rounded=1;whiteSpace=wrap;html=1;" vertex="1" parent="1">
          <mxGeometry x="270" y="970" width="120" height="60" as="geometry" />
        </mxCell>
        <mxCell id="s1eVWg7Wsp98b323GNgj-41" value="Category" style="rounded=1;whiteSpace=wrap;html=1;" vertex="1" parent="1">
          <mxGeometry x="140" y="1210" width="120" height="60" as="geometry" />
        </mxCell>
        <mxCell id="s1eVWg7Wsp98b323GNgj-50" value="* Meal can also be added directly since it is provided in the nutritional information." style="text;html=1;strokeColor=none;fillColor=none;align=left;verticalAlign=middle;whiteSpace=wrap;rounded=0;" vertex="1" parent="1">
          <mxGeometry x="110" y="1310" width="440" height="30" as="geometry" />
        </mxCell>
      </root>
    </mxGraphModel>
  </diagram>
</mxfile>
